{
.appVersion = "961";
copyright = "Copyright 2017 Google Inc. All Rights Reserved.";
customParameters = (
{
name = glyphOrder;
value = (
.notdef,
NULL,
CR,
space,
u10900,
u10901,
u10902,
u10903,
u10904,
u10905,
u10906,
u10907,
u10908,
u10909,
u1090A,
u1090B,
u1090C,
u1090D,
u1090E,
u1090F,
u10910,
u10911,
u10912,
u10913,
u10914,
u10915,
u10916,
u10917,
u10918,
u10919,
two_ph,
three_ph,
u1091F,
uni00A0
);
},
{
name = description;
value = "Designed by Monotype design team.";
},
{
name = license;
value = "This Font Software is licensed under the SIL Open Font License, Version 1.1. This Font Software is distributed on an \"AS IS\" BASIS, WITHOUT WARRANTIES OR CONDITIONS OF ANY KIND, either express or implied. See the SIL Open Font License for the specific language, permissions and limitations governing your use of this Font Software.";
},
{
name = licenseURL;
value = "http://scripts.sil.org/OFL";
},
{
name = vendorID;
value = GOOG;
},
{
name = unicodeRanges;
value = (
0,
1,
57,
58
);
},
{
name = trademark;
value = "Noto is a trademark of Google Inc.";
},
{
name = "Has WWS Names";
value = 1;
},
{
name = versionString;
value = "Version 1.900";
},
{
name = fsType;
value = (
);
},
{
name = codePageRanges;
value = (
1252
);
}
);
date = "2017-01-17 14:34:12 +0000";
designer = "Monotype Design Team";
designerURL = "http://www.monotype.com/studio";
disablesAutomaticAlignment = 1;
disablesNiceNames = 1;
familyName = "Noto Sans Phoenician";
fontMaster = (
{
alignmentZones = (
"{1069, 15}",
"{719, 15}",
"{536, 15}",
"{0, -15}",
"{-293, -15}"
);
ascender = 1069;
capHeight = 719;
customParameters = (
{
name = typoAscender;
value = 1069;
},
{
name = typoDescender;
value = -293;
},
{
name = typoLineGap;
value = 0;
},
{
name = winAscent;
value = 1069;
},
{
name = winDescent;
value = 293;
},
{
name = hheaAscender;
value = 1069;
},
{
name = hheaDescender;
value = -293;
},
{
name = hheaLineGap;
value = 0;
},
{
name = underlinePosition;
value = -100;
},
{
name = underlineThickness;

glyphs = (
{
glyphname = .notdef;
lastChange = "2017-01-17 14:56:38 +0000";
layers = (
{
layerId = UUID0;
paths = (
{
closed = 1;
nodes = (
"450 0 LINE",
"450 714 LINE",
"50 714 LINE",
"50 0 LINE"
);
},
{
closed = 1;
nodes = (
"98 666 LINE",
"402 666 LINE",
"402 48 LINE",
"98 48 LINE"
);
}
);
width = 500;
}
);
},
{
glyphname = u10900;
lastChange = "2017-01-17 15:10:08 +0000";
layers = (
{
layerId = UUID0;
paths = (
{
closed = 1;
nodes = (
"537 14 LINE",
"525 82 OFFCURVE",
"512 148 OFFCURVE",
"495 214 CURVE",
"582 217 OFFCURVE",
"676 221 OFFCURVE",
"771 227 CURVE",
"760 306 LINE",
"666 300 OFFCURVE",
"570 295 OFFCURVE",
"474 291 CURVE",
"457 354 OFFCURVE",
"437 417 OFFCURVE",
"414 478 CURVE",
"484 522 OFFCURVE",
"557 566 OFFCURVE",
"635 610 CURVE",
"599 683 LINE",
"525 640 OFFCURVE",
"455 596 OFFCURVE",
"387 552 CURVE",
"365 610 OFFCURVE",
"340 667 OFFCURVE",
"315 725 CURVE",
"235 687 LINE",
"262 624 OFFCURVE",
"287 563 OFFCURVE",
"310 501 CURVE",
"241 456 OFFCURVE",
"175 410 OFFCURVE",
"111 366 CURVE SMOOTH",
"65 334 OFFCURVE",
"39 307 OFFCURVE",
"39 267 CURVE SMOOTH",
"39 226 OFFCURVE",
"67 206 OFFCURVE",
"128 206 CURVE SMOOTH",
"176 206 OFFCURVE",
"276 207 OFFCURVE",
"402 211 CURVE",
"420 142 OFFCURVE",
"436 68 OFFCURVE",
"451 -12 CURVE"
);
},
{
closed = 1;
nodes = (
"132 286 LINE",
"198 334 OFFCURVE",
"266 381 OFFCURVE",
"336 427 CURVE",
"352 382 OFFCURVE",
"367 335 OFFCURVE",
"381 287 CURVE",
"299 285 OFFCURVE",
"217 282 OFFCURVE",
"134 281 CURVE"
);
}
);
width = 820;
}
);
unicode = 10900;
},
{
glyphname = u10901;
lastChange = "2017-01-17 14:56:38 +0000";
layers = (
{
layerId = UUID0;
paths = (
{
closed = 1;
nodes = (
"259 17 OFFCURVE",
"316 44 OFFCURVE",
"369 78 CURVE SMOOTH",
"427 115 OFFCURVE",
"525 185 OFFCURVE",
"525 265 CURVE SMOOTH",
"525 298 OFFCURVE",
"517 337 OFFCURVE",
"512 359 CURVE SMOOTH",
"488 464 OFFCURVE",
"442 615 OFFCURVE",
"418 677 CURVE SMOOTH",
"409 700 OFFCURVE",
"395 719 OFFCURVE",
"357 719 CURVE SMOOTH",
"321 719 OFFCURVE",
"304 700 OFFCURVE",
"279 678 CURVE SMOOTH",
"211 618 OFFCURVE",
"144 543 OFFCURVE",
"74 469 CURVE SMOOTH",
"54 448 OFFCURVE",
"39 425 OFFCURVE",
"39 402 CURVE SMOOTH",
"39 384 OFFCURVE",
"44 357 OFFCURVE",
"83 357 CURVE SMOOTH",
"147 357 OFFCURVE",
"271 358 OFFCURVE",
"417 369 CURVE",
"425 329 OFFCURVE",
"430 297 OFFCURVE",
"430 272 CURVE SMOOTH",
"430 218 OFFCURVE",
"364 170 OFFCURVE",
"318 143 CURVE SMOOTH",
"265 112 OFFCURVE",
"207 81 OFFCURVE",
"153 62 CURVE",
"190 -11 LINE"
);
},
{
closed = 1;
nodes = (
"152 440 LINE",
"191 487 OFFCURVE",
"270 573 OFFCURVE",
"343 625 CURVE",
"363 566 OFFCURVE",
"381 506 OFFCURVE",
"398 445 CURVE",
"325 440 OFFCURVE",
"242 436 OFFCURVE",
"178 436 CURVE SMOOTH",
"169 436 OFFCURVE",
"161 436 OFFCURVE",
"154 436 CURVE"
);
}
);
width = 623;
}
);
unicode = 10901;
},
{
glyphname = u10902;
lastChange = "2017-01-17 14:56:38 +0000";
layers = (
{
layerId = UUID0;
paths = (
{
closed = 1;
nodes = (
"481 21 LINE",
"479 155 OFFCURVE",
"466 271 OFFCURVE",
"448 383 CURVE SMOOTH",
"430 492 OFFCURVE",
"409 608 OFFCURVE",
"377 687 CURVE SMOOTH",
"370 704 OFFCURVE",
"360 720 OFFCURVE",
"333 720 CURVE SMOOTH",
"314 720 OFFCURVE",
"299 713 OFFCURVE",
"284 703 CURVE SMOOTH",
"181 634 OFFCURVE",
"96 557 OFFCURVE",
"15 458 CURVE",
"73 399 LINE",
"151 491 OFFCURVE",
"224 551 OFFCURVE",
"302 608 CURVE",
"324 550 OFFCURVE",
"340 448 OFFCURVE",
"355 356 CURVE SMOOTH",
"372 249 OFFCURVE",
"384 130 OFFCURVE",
"387 0 CURVE"
);
}
);
width = 579;
}
);
unicode = 10902;
},
{
glyphname = u10903;
lastChange = "2017-01-17 14:56:38 +0000";
layers = (
{
layerId = UUID0;
paths = (
{
closed = 1;
nodes = (
"607 132 LINE",
"561 292 OFFCURVE",
"434 582 OFFCURVE",
"363 676 CURVE SMOOTH",
"347 697 OFFCURVE",
"328 719 OFFCURVE",
"303 719 CURVE SMOOTH",
"270 719 OFFCURVE",
"255 705 OFFCURVE",
"229 679 CURVE SMOOTH",
"191 641 OFFCURVE",
"49 434 OFFCURVE",
"49 323 CURVE SMOOTH",
"49 291 OFFCURVE",
"103 280 OFFCURVE",
"180 280 CURVE SMOOTH",
"273 280 OFFCURVE",
"390 296 OFFCURVE",
"452 312 CURVE",
"481 239 OFFCURVE",
"506 166 OFFCURVE",
"523 107 CURVE"
);
},
{
closed = 1;
nodes = (
"183 359 OFFCURVE",
"166 360 OFFCURVE",
"153 363 CURVE",
"151 368 LINE",
"161 418 OFFCURVE",
"222 536 OFFCURVE",
"292 625 CURVE",
"331 574 OFFCURVE",
"378 483 OFFCURVE",
"421 384 CURVE",
"346 371 OFFCURVE",
"262 359 OFFCURVE",
"203 359 CURVE SMOOTH"
);
}
);
width = 656;
}
);
unicode = 10903;
},
{
glyphname = u10904;
lastChange = "2017-01-17 14:56:38 +0000";
layers = (
{
layerId = UUID0;
paths = (
{
closed = 1;
nodes = (
"647 15 LINE",
"588 258 OFFCURVE",
"533 458 OFFCURVE",
"423 686 CURVE SMOOTH",
"414 704 OFFCURVE",
"401 719 OFFCURVE",
"370 719 CURVE SMOOTH",
"347 719 OFFCURVE",
"328 712 OFFCURVE",
"302 694 CURVE SMOOTH",
"188 615 OFFCURVE",
"144 584 OFFCURVE",
"49 511 CURVE",
"91 445 LINE",
"174 506 OFFCURVE",
"261 566 OFFCURVE",
"358 625 CURVE",
"374 597 OFFCURVE",
"393 557 OFFCURVE",
"412 507 CURVE",
"326 445 OFFCURVE",
"234 384 OFFCURVE",
"131 326 CURVE",
"169 256 LINE",
"268 313 OFFCURVE",
"359 371 OFFCURVE",
"440 430 CURVE",
"454 392 OFFCURVE",
"468 350 OFFCURVE",
"481 306 CURVE",
"411 246 OFFCURVE",
"318 179 OFFCURVE",
"206 118 CURVE",
"244 48 LINE",
"343 104 OFFCURVE",
"431 163 OFFCURVE",
"506 224 CURVE",
"528 147 OFFCURVE",
"549 66 OFFCURVE",
"567 -12 CURVE"
);
}
);
width = 706;
}
);
unicode = 10904;
},
{
glyphname = u10905;
lastChange = "2017-01-17 14:56:38 +0000";
layers = (
{
layerId = UUID0;
paths = (
{
closed = 1;
nodes = (
"535 61 LINE",
"470 135 OFFCURVE",
"417 277 OFFCURVE",
"417 442 CURVE SMOOTH",
"417 513 OFFCURVE",
"432 573 OFFCURVE",
"492 678 CURVE",
"414 726 LINE",
"363 598 OFFCURVE",
"289 529 OFFCURVE",
"190 529 CURVE SMOOTH",
"132 529 OFFCURVE",
"112 568 OFFCURVE",
"112 608 CURVE SMOOTH",
"112 636 OFFCURVE",
"121 664 OFFCURVE",
"133 682 CURVE",
"49 719 LINE",
"27 680 OFFCURVE",
"17 642 OFFCURVE",
"17 606 CURVE SMOOTH",
"17 518 OFFCURVE",
"80 450 OFFCURVE",
"186 450 CURVE SMOOTH",
"238 450 OFFCURVE",
"284 462 OFFCURVE",
"323 481 CURVE",
"322 465 OFFCURVE",
"322 449 OFFCURVE",
"322 437 CURVE SMOOTH",
"322 273 OFFCURVE",
"377 83 OFFCURVE",
"469 -8 CURVE"
);
}
);
width = 623;
}
);
unicode = 10905;
},
{
glyphname = u10906;
lastChange = "2017-01-17 14:56:38 +0000";
layers = (
{
layerId = UUID0;
paths = (
{
closed = 1;
nodes = (
"339 -11 OFFCURVE",
"397 3 OFFCURVE",
"424 11 CURVE SMOOTH",
"581 56 LINE",
"566 132 LINE",
"361 81 LINE",
"354 121 OFFCURVE",
"354 217 OFFCURVE",
"354 325 CURVE SMOOTH",
"354 458 OFFCURVE",
"375 642 OFFCURVE",
"375 692 CURVE SMOOTH",
"375 712 OFFCURVE",
"369 729 OFFCURVE",
"349 729 CURVE SMOOTH",
"337 729 OFFCURVE",
"304 724 OFFCURVE",
"283 718 CURVE SMOOTH",
"72 658 LINE",
"68 577 LINE",
"278 633 LINE",
"267 553 OFFCURVE",
"260 363 OFFCURVE",
"260 321 CURVE SMOOTH",
"260 224 OFFCURVE",
"265 48 OFFCURVE",
"273 26 CURVE SMOOTH",
"283 -2 OFFCURVE",
"299 -11 OFFCURVE",
"321 -11 CURVE SMOOTH"
);
}
);
width = 649;
}
);
unicode = 10906;
},
{
glyphname = u10907;
lastChange = "2017-01-17 14:56:38 +0000";
layers = (
{
layerId = UUID0;
paths = (
{
closed = 1;
nodes = (
"575 10 LINE",
"573 415 OFFCURVE",
"547 614 OFFCURVE",
"542 657 CURVE SMOOTH",
"540 674 OFFCURVE",
"530 683 OFFCURVE",
"515 683 CURVE SMOOTH",
"511 683 OFFCURVE",
"506 682 OFFCURVE",
"501 681 CURVE SMOOTH",
"173 598 LINE",
"170 634 OFFCURVE",
"167 667 OFFCURVE",
"164 696 CURVE",
"73 685 LINE",
"88 501 OFFCURVE",
"111 303 OFFCURVE",
"111 77 CURVE SMOOTH",
"111 49 OFFCURVE",
"121 38 OFFCURVE",
"141 38 CURVE SMOOTH",
"147 38 OFFCURVE",
"155 39 OFFCURVE",
"164 41 CURVE SMOOTH",
"481 122 LINE",
"481 -5 LINE"
);
},
{
closed = 1;
nodes = (
"201 186 OFFCURVE",
"200 236 OFFCURVE",
"197 284 CURVE",
"474 354 LINE",
"476 310 OFFCURVE",
"478 260 OFFCURVE",
"480 204 CURVE",
"202 133 LINE"
);
},
{
closed = 1;
nodes = (
"189 420 OFFCURVE",
"185 471 OFFCURVE",
"181 517 CURVE",
"456 587 LINE",
"460 541 OFFCURVE",
"464 492 OFFCURVE",
"468 435 CURVE",
"193 365 LINE"
);
}
);
width = 643;
}
);
unicode = 10907;
},
{
glyphname = u10908;
lastChange = "2017-01-17 14:56:38 +0000";
layers = (
{
layerId = UUID0;
paths = (
{
closed = 1;
nodes = (
"637 -10 OFFCURVE",
"735 120 OFFCURVE",
"735 318 CURVE SMOOTH",
"735 551 OFFCURVE",
"620 725 OFFCURVE",
"379 725 CURVE SMOOTH",
"178 725 OFFCURVE",
"73 597 OFFCURVE",
"73 397 CURVE SMOOTH",
"73 150 OFFCURVE",
"198 -10 OFFCURVE",
"428 -10 CURVE SMOOTH"
);
},
{
closed = 1;
nodes = (
"246 69 OFFCURVE",
"168 206 OFFCURVE",
"168 396 CURVE SMOOTH",
"168 553 OFFCURVE",
"235 646 OFFCURVE",
"384 646 CURVE SMOOTH",
"562 646 OFFCURVE",
"641 511 OFFCURVE",
"641 319 CURVE SMOOTH",
"641 163 OFFCURVE",
"572 69 OFFCURVE",
"423 69 CURVE SMOOTH"
);
},
{
closed = 1;
nodes = (
"452 182 LINE",
"452 229 OFFCURVE",
"451 276 OFFCURVE",
"449 323 CURVE",
"498 329 OFFCURVE",
"544 337 OFFCURVE",
"593 348 CURVE",
"584 425 LINE",
"542 417 OFFCURVE",
"496 409 OFFCURVE",
"444 403 CURVE",
"441 453 OFFCURVE",
"436 502 OFFCURVE",
"431 552 CURVE",
"343 540 LINE",
"348 491 OFFCURVE",
"352 443 OFFCURVE",
"354 395 CURVE",
"321 393 OFFCURVE",
"286 392 OFFCURVE",
"249 392 CURVE SMOOTH",
"237 392 OFFCURVE",
"225 393 OFFCURVE",
"213 393 CURVE",
"218 314 LINE",
"226 314 OFFCURVE",
"249 313 OFFCURVE",
"257 313 CURVE SMOOTH",
"293 313 OFFCURVE",
"327 314 OFFCURVE",
"358 316 CURVE",
"360 269 OFFCURVE",
"362 222 OFFCURVE",
"362 174 CURVE"
);
}
);
width = 799;
}
);
unicode = 10908;
},
{
glyphname = u10909;
lastChange = "2017-01-17 14:56:38 +0000";
layers = (
{
layerId = UUID0;
paths = (
{
closed = 1;
nodes = (
"232 99 OFFCURVE",
"244 101 OFFCURVE",
"258 105 CURVE SMOOTH",
"377 139 OFFCURVE",
"451 160 OFFCURVE",
"549 171 CURVE",
"531 250 LINE",
"431 235 OFFCURVE",
"367 223 OFFCURVE",
"277 195 CURVE",
"314 333 OFFCURVE",
"370 475 OFFCURVE",
"435 638 CURVE SMOOTH",
"441 653 OFFCURVE",
"444 667 OFFCURVE",
"444 679 CURVE SMOOTH",
"444 718 OFFCURVE",
"421 728 OFFCURVE",
"396 728 CURVE SMOOTH",
"387 728 OFFCURVE",
"376 726 OFFCURVE",
"365 724 CURVE SMOOTH",
"65 662 LINE",
"59 574 LINE",
"336 633 LINE",
"313 579 OFFCURVE",
"291 518 OFFCURVE",
"269 458 CURVE",
"207 448 OFFCURVE",
"141 431 OFFCURVE",
"73 407 CURVE",
"63 329 LINE",
"123 348 OFFCURVE",
"182 363 OFFCURVE",
"240 374 CURVE",
"206 273 OFFCURVE",
"179 183 OFFCURVE",
"173 139 CURVE",
"179 112 OFFCURVE",
"195 99 OFFCURVE",
"222 99 CURVE SMOOTH"
);
}
);
width = 608;
}
);
unicode = 10909;
},
{
glyphname = u1090A;
lastChange = "2017-01-17 14:56:38 +0000";
layers = (
{
layerId = UUID0;
paths = (
{
closed = 1;
nodes = (
"398 227 OFFCURVE",
"478 462 OFFCURVE",
"568 696 CURVE",
"483 724 LINE",
"457 659 OFFCURVE",
"429 584 OFFCURVE",
"401 507 CURVE",
"329 578 OFFCURVE",
"222 664 OFFCURVE",
"126 724 CURVE",
"72 663 LINE",
"167 603 OFFCURVE",
"284 504 OFFCURVE",
"370 418 CURVE",
"264 383 OFFCURVE",
"157 340 OFFCURVE",
"49 292 CURVE",
"77 218 LINE",
"163 257 OFFCURVE",
"250 293 OFFCURVE",
"339 324 CURVE",
"303 212 OFFCURVE",
"272 104 OFFCURVE",
"256 17 CURVE",
"341 -12 LINE"
);
}
);
width = 588;
}
);
unicode = 1090A;
},
{
glyphname = u1090B;
lastChange = "2017-01-17 14:56:38 +0000";
layers = (
{
layerId = UUID0;
paths = (
{
closed = 1;
nodes = (
"203 -7 OFFCURVE",
"347 13 OFFCURVE",
"469 53 CURVE",
"452 134 LINE",
"336 99 OFFCURVE",
"234 83 OFFCURVE",
"137 77 CURVE",
"154 159 OFFCURVE",
"351 563 OFFCURVE",
"399 649 CURVE",
"319 687 LINE",
"208 479 OFFCURVE",
"87 211 OFFCURVE",
"62 127 CURVE SMOOTH",
"52 93 OFFCURVE",
"39 61 OFFCURVE",
"39 41 CURVE SMOOTH",
"39 4 OFFCURVE",
"82 -7 OFFCURVE",
"110 -7 CURVE SMOOTH"
);
}
);
width = 528;
}
);
unicode = 1090B;
},
{
glyphname = u1090C;
lastChange = "2017-01-17 14:56:38 +0000";
layers = (
{
layerId = UUID0;
paths = (
{
closed = 1;
nodes = (
"450 94 OFFCURVE",
"694 410 OFFCURVE",
"694 634 CURVE SMOOTH",
"694 694 OFFCURVE",
"653 708 OFFCURVE",
"631 708 CURVE SMOOTH",
"607 708 OFFCURVE",
"594 704 OFFCURVE",
"571 682 CURVE SMOOTH",
"435 557 LINE",
"359 653 LINE SMOOTH",
"347 668 OFFCURVE",
"335 681 OFFCURVE",
"318 681 CURVE SMOOTH",
"305 681 OFFCURVE",
"294 677 OFFCURVE",
"275 655 CURVE SMOOTH",
"192 557 LINE",
"106 727 LINE",
"29 683 LINE",
"122 498 LINE SMOOTH",
"137 467 OFFCURVE",
"158 455 OFFCURVE",
"178 455 CURVE SMOOTH",
"197 455 OFFCURVE",
"216 465 OFFCURVE",
"232 483 CURVE SMOOTH",
"311 567 LINE",
"360 507 LINE SMOOTH",
"386 475 OFFCURVE",
"398 466 OFFCURVE",
"425 466 CURVE SMOOTH",
"471 466 OFFCURVE",
"507 500 OFFCURVE",
"540 532 CURVE SMOOTH",
"603 592 LINE",
"583 446 OFFCURVE",
"395 164 OFFCURVE",
"220 7 CURVE",
"275 -55 LINE"
);
}
);
width = 762;
}
);
unicode = 1090C;
},
{
glyphname = u1090D;
lastChange = "2017-01-17 14:56:38 +0000";
layers = (
{
layerId = UUID0;
paths = (
{
closed = 1;
nodes = (
"334 146 OFFCURVE",
"458 426 OFFCURVE",
"458 605 CURVE SMOOTH",
"458 633 OFFCURVE",
"431 658 OFFCURVE",
"397 658 CURVE SMOOTH",
"371 658 OFFCURVE",
"350 643 OFFCURVE",
"329 626 CURVE SMOOTH",
"200 521 LINE",
"117 721 LINE",
"39 682 LINE",
"125 462 LINE SMOOTH",
"132 445 OFFCURVE",
"146 422 OFFCURVE",
"175 422 CURVE SMOOTH",
"192 422 OFFCURVE",
"218 430 OFFCURVE",
"238 446 CURVE SMOOTH",
"358 543 LINE",
"333 356 OFFCURVE",
"216 144 OFFCURVE",
"132 33 CURVE",
"205 -18 LINE"
);
}
);
width = 527;
}
);
unicode = 1090D;
},
{
glyphname = u1090E;
lastChange = "2017-01-17 14:56:38 +0000";
layers = (
{
layerId = UUID0;
paths = (
{
closed = 1;
nodes = (
"397 83 OFFCURVE",
"393 185 OFFCURVE",
"384 285 CURVE",
"441 289 OFFCURVE",
"498 292 OFFCURVE",
"551 292 CURVE",
"559 372 LINE",
"497 371 OFFCURVE",
"436 368 OFFCURVE",
"376 363 CURVE",
"372 398 OFFCURVE",
"368 432 OFFCURVE",
"364 464 CURVE",
"418 469 OFFCURVE",
"473 473 OFFCURVE",
"523 474 CURVE",
"529 554 LINE",
"469 551 OFFCURVE",
"410 547 OFFCURVE",
"352 542 CURVE",
"346 576 OFFCURVE",
"339 607 OFFCURVE",
"333 634 CURVE",
"395 639 OFFCURVE",
"457 641 OFFCURVE",
"510 641 CURVE",
"518 721 LINE",
"364 719 OFFCURVE",
"214 703 OFFCURVE",
"76 683 CURVE",
"68 602 LINE",
"111 611 OFFCURVE",
"171 619 OFFCURVE",
"236 626 CURVE",
"243 598 OFFCURVE",
"250 566 OFFCURVE",
"256 532 CURVE",
"199 525 OFFCURVE",
"144 517 OFFCURVE",
"90 508 CURVE",
"84 427 LINE",
"144 437 OFFCURVE",
"206 446 OFFCURVE",
"269 454 CURVE",
"273 422 OFFCURVE",
"278 389 OFFCURVE",
"282 355 CURVE",
"226 350 OFFCURVE",
"171 343 OFFCURVE",
"118 335 CURVE",
"110 254 LINE",
"168 262 OFFCURVE",
"229 270 OFFCURVE",
"290 276 CURVE",
"298 188 OFFCURVE",
"304 95 OFFCURVE",
"304 4 CURVE",
"398 -5 LINE"
);
}
);
width = 627;
}
);
unicode = 1090E;
},
{
glyphname = u1090F;
lastChange = "2017-01-17 14:56:38 +0000";
layers = (
{
layerId = UUID0;
paths = (
{
closed = 1;
nodes = (
"572 230 OFFCURVE",
"650 366 OFFCURVE",
"650 482 CURVE SMOOTH",
"650 584 OFFCURVE",
"577 725 OFFCURVE",
"381 725 CURVE SMOOTH",
"197 725 OFFCURVE",
"78 617 OFFCURVE",
"78 476 CURVE SMOOTH",
"78 334 OFFCURVE",
"169 230 OFFCURVE",
"346 230 CURVE SMOOTH"
);
},
{
closed = 1;
nodes = (
"229 310 OFFCURVE",
"173 383 OFFCURVE",
"173 480 CURVE SMOOTH",
"173 568 OFFCURVE",
"240 646 OFFCURVE",
"378 646 CURVE SMOOTH",
"492 646 OFFCURVE",
"556 559 OFFCURVE",
"556 482 CURVE SMOOTH",
"556 394 OFFCURVE",
"500 310 OFFCURVE",
"353 310 CURVE SMOOTH"
);
}
);
width = 729;
}
);
unicode = 1090F;
},
{
glyphname = u10910;
lastChange = "2017-01-17 14:56:38 +0000";
layers = (
{
layerId = UUID0;
paths = (
{
closed = 1;
nodes = (
"396 164 OFFCURVE",
"477 388 OFFCURVE",
"477 538 CURVE SMOOTH",
"477 685 OFFCURVE",
"376 725 OFFCURVE",
"287 725 CURVE SMOOTH",
"150 725 OFFCURVE",
"79 655 OFFCURVE",
"49 550 CURVE",
"138 534 LINE",
"154 590 OFFCURVE",
"189 646 OFFCURVE",
"277 646 CURVE SMOOTH",
"326 646 OFFCURVE",
"382 620 OFFCURVE",
"382 544 CURVE SMOOTH",
"382 378 OFFCURVE",
"286 153 OFFCURVE",
"221 14 CURVE",
"307 -12 LINE"
);
}
);
width = 550;
}
);
unicode = 10910;
},
{
glyphname = u10911;
lastChange = "2017-01-17 14:56:38 +0000";
layers = (
{
layerId = UUID0;
paths = (
{
closed = 1;
nodes = (
"448 55 LINE",
"367 194 OFFCURVE",
"294 334 OFFCURVE",
"233 469 CURVE",
"265 515 OFFCURVE",
"313 572 OFFCURVE",
"375 608 CURVE",
"431 511 LINE SMOOTH",
"454 471 OFFCURVE",
"491 449 OFFCURVE",
"522 449 CURVE SMOOTH",
"592 449 OFFCURVE",
"647 508 OFFCURVE",
"713 634 CURVE",
"640 667 LINE",
"611 603 OFFCURVE",
"567 532 OFFCURVE",
"530 532 CURVE SMOOTH",
"517 532 OFFCURVE",
"505 540 OFFCURVE",
"495 559 CURVE SMOOTH",
"463 618 LINE SMOOTH",
"449 644 OFFCURVE",
"428 694 OFFCURVE",
"389 694 CURVE SMOOTH",
"336 694 OFFCURVE",
"248 627 OFFCURVE",
"196 554 CURVE",
"169 617 OFFCURVE",
"146 678 OFFCURVE",
"126 738 CURVE",
"39 709 LINE",
"127 451 OFFCURVE",
"248 218 OFFCURVE",
"378 -4 CURVE"
);
}
);
width = 762;
}
);
unicode = 10911;
},
{
glyphname = u10912;
lastChange = "2017-01-17 14:56:38 +0000";
layers = (
{
layerId = UUID0;
paths = (
{
closed = 1;
nodes = (
"355 0 LINE",
"352 51 OFFCURVE",
"349 115 OFFCURVE",
"349 167 CURVE SMOOTH",
"349 193 OFFCURVE",
"349 220 OFFCURVE",
"351 248 CURVE",
"507 259 OFFCURVE",
"615 343 OFFCURVE",
"615 486 CURVE SMOOTH",
"615 629 OFFCURVE",
"501 725 OFFCURVE",
"356 725 CURVE SMOOTH",
"208 725 OFFCURVE",
"59 629 OFFCURVE",
"59 481 CURVE SMOOTH",
"59 348 OFFCURVE",
"142 268 OFFCURVE",
"259 250 CURVE",
"258 219 OFFCURVE",
"257 189 OFFCURVE",
"257 161 CURVE SMOOTH",
"257 109 OFFCURVE",
"260 48 OFFCURVE",
"263 0 CURVE"
);
},
{
closed = 1;
nodes = (
"196 344 OFFCURVE",
"150 389 OFFCURVE",
"150 472 CURVE SMOOTH",
"150 568 OFFCURVE",
"227 627 OFFCURVE",
"311 642 CURVE",
"293 559 OFFCURVE",
"275 443 OFFCURVE",
"265 330 CURVE"
);
},
{
closed = 1;
nodes = (
"367 444 OFFCURVE",
"386 562 OFFCURVE",
"401 640 CURVE",
"473 622 OFFCURVE",
"523 564 OFFCURVE",
"523 480 CURVE SMOOTH",
"523 383 OFFCURVE",
"442 338 OFFCURVE",
"356 328 CURVE"
);
}
);
width = 674;
}
);
unicode = 10912;
},
{
glyphname = u10913;
lastChange = "2017-01-17 14:56:38 +0000";
layers = (
{
layerId = UUID0;
paths = (
{
closed = 1;
nodes = (
"608 -79 LINE",
"521 114 OFFCURVE",
"427 445 OFFCURVE",
"379 665 CURVE SMOOTH",
"368 715 OFFCURVE",
"359 722 OFFCURVE",
"332 722 CURVE SMOOTH",
"238 722 OFFCURVE",
"50 502 OFFCURVE",
"49 407 CURVE SMOOTH",
"49 376 OFFCURVE",
"110 364 OFFCURVE",
"182 358 CURVE SMOOTH",
"208 356 OFFCURVE",
"235 355 OFFCURVE",
"261 355 CURVE SMOOTH",
"299 355 OFFCURVE",
"336 358 OFFCURVE",
"363 363 CURVE",
"414 184 OFFCURVE",
"480 -1 OFFCURVE",
"523 -111 CURVE"
);
},
{
closed = 1;
nodes = (
"215 436 OFFCURVE",
"178 438 OFFCURVE",
"148 445 CURVE",
"146 450 LINE",
"179 524 OFFCURVE",
"277 613 OFFCURVE",
"302 625 CURVE",
"311 569 OFFCURVE",
"325 507 OFFCURVE",
"341 442 CURVE",
"316 438 OFFCURVE",
"285 436 OFFCURVE",
"252 436 CURVE SMOOTH"
);
}
);
width = 608;
}
);
unicode = 10913;
},
{
glyphname = u10914;
lastChange = "2017-01-17 14:56:38 +0000";
layers = (
{
layerId = UUID0;
paths = (
{
closed = 1;
nodes = (
"519 213 OFFCURVE",
"535 218 OFFCURVE",
"551 241 CURVE SMOOTH",
"588 294 OFFCURVE",
"667 511 OFFCURVE",
"688 612 CURVE",
"601 638 LINE",
"582 559 OFFCURVE",
"545 424 OFFCURVE",
"504 346 CURVE",
"471 435 OFFCURVE",
"437 622 OFFCURVE",
"424 689 CURVE SMOOTH",
"419 715 OFFCURVE",
"407 734 OFFCURVE",
"379 734 CURVE SMOOTH",
"341 734 OFFCURVE",
"258 572 OFFCURVE",
"199 432 CURVE",
"169 488 OFFCURVE",
"130 641 OFFCURVE",
"112 713 CURVE",
"29 688 LINE",
"48 604 OFFCURVE",
"89 430 OFFCURVE",
"146 344 CURVE SMOOTH",
"160 323 OFFCURVE",
"180 320 OFFCURVE",
"199 320 CURVE SMOOTH",
"227 320 OFFCURVE",
"243 335 OFFCURVE",
"255 356 CURVE SMOOTH",
"265 373 OFFCURVE",
"324 530 OFFCURVE",
"362 567 CURVE",
"373 484 OFFCURVE",
"419 305 OFFCURVE",
"456 235 CURVE SMOOTH",
"464 220 OFFCURVE",
"482 213 OFFCURVE",
"500 213 CURVE SMOOTH"
);
}
);
width = 751;
}
);
unicode = 10914;
},
{
glyphname = u10915;
lastChange = "2017-01-17 14:56:38 +0000";
layers = (
{
layerId = UUID0;
paths = (
{
closed = 1;
nodes = (
"350 166 OFFCURVE",
"366 267 OFFCURVE",
"387 361 CURVE",
"480 368 OFFCURVE",
"570 373 OFFCURVE",
"634 375 CURVE",
"640 455 LINE",
"574 452 OFFCURVE",
"492 448 OFFCURVE",
"408 442 CURVE",
"426 511 OFFCURVE",
"448 581 OFFCURVE",
"475 665 CURVE",
"390 690 LINE",
"358 597 OFFCURVE",
"332 515 OFFCURVE",
"311 435 CURVE",
"233 428 OFFCURVE",
"159 419 OFFCURVE",
"104 411 CURVE",
"98 330 LINE",
"150 338 OFFCURVE",
"219 346 OFFCURVE",
"291 353 CURVE",
"270 256 OFFCURVE",
"255 156 OFFCURVE",
"247 38 CURVE",
"338 26 LINE"
);
}
);
width = 738;
}
);
unicode = 10915;
},
{
glyphname = u10916;
lastChange = "2017-01-17 14:56:38 +0000";
layers = (
{
layerId = UUID0;
paths = (
{
closed = 1;
nodes = (
"243 210 OFFCURVE",
"292 500 OFFCURVE",
"304 708 CURVE",
"213 721 LINE",
"193 469 OFFCURVE",
"153 229 OFFCURVE",
"107 14 CURVE",
"197 -11 LINE"
);
}
);
width = 401;
}
);
unicode = 10916;
},
{
glyphname = u10917;
lastChange = "2017-01-17 14:56:38 +0000";
layers = (
{
layerId = UUID0;
paths = (
{
closed = 1;
nodes = (
"625 221 OFFCURVE",
"646 274 OFFCURVE",
"646 328 CURVE SMOOTH",
"646 411 OFFCURVE",
"597 440 OFFCURVE",
"543 440 CURVE SMOOTH",
"412 440 OFFCURVE",
"260 436 OFFCURVE",
"56 426 CURVE",
"45 341 LINE",
"218 350 OFFCURVE",
"464 359 OFFCURVE",
"501 359 CURVE SMOOTH",
"537 359 OFFCURVE",
"551 351 OFFCURVE",
"551 323 CURVE SMOOTH",
"551 294 OFFCURVE",
"536 271 OFFCURVE",
"519 255 CURVE",
"584 185 LINE"
);
}
);
width = 676;
}
);
unicode = 10917;
},
{
glyphname = u10918;
lastChange = "2017-01-17 14:56:38 +0000";
layers = (
{
layerId = UUID0;
paths = (
{
closed = 1;
nodes = (
"359 226 OFFCURVE",
"461 396 OFFCURVE",
"461 461 CURVE SMOOTH",
"461 488 OFFCURVE",
"446 511 OFFCURVE",
"419 511 CURVE SMOOTH",
"409 511 OFFCURVE",
"397 509 OFFCURVE",
"383 505 CURVE SMOOTH",
"311 484 OFFCURVE",
"244 458 OFFCURVE",
"195 456 CURVE",
"227 523 OFFCURVE",
"353 641 OFFCURVE",
"353 678 CURVE SMOOTH",
"353 723 OFFCURVE",
"300 725 OFFCURVE",
"244 725 CURVE SMOOTH",
"174 725 OFFCURVE",
"66 706 OFFCURVE",
"42 703 CURVE",
"49 624 LINE",
"99 633 OFFCURVE",
"163 644 OFFCURVE",
"213 644 CURVE SMOOTH",
"223 644 OFFCURVE",
"232 644 OFFCURVE",
"241 643 CURVE",
"219 622 OFFCURVE",
"157 549 OFFCURVE",
"125 499 CURVE SMOOTH",
"107 471 OFFCURVE",
"93 444 OFFCURVE",
"93 433 CURVE SMOOTH",
"93 395 OFFCURVE",
"104 375 OFFCURVE",
"149 375 CURVE SMOOTH",
"208 375 OFFCURVE",
"299 396 OFFCURVE",
"359 415 CURVE",
"310 306 OFFCURVE",
"207 195 OFFCURVE",
"161 150 CURVE",
"217 89 LINE"
);
}
);
width = 529;
}
);
unicode = 10918;
},
{
glyphname = u10919;
lastChange = "2017-01-17 14:56:38 +0000";
layers = (
{
layerId = UUID0;
paths = (
{
closed = 1;
nodes = (
"612 55 LINE",
"571 190 OFFCURVE",
"517 337 OFFCURVE",
"457 470 CURVE",
"491 542 OFFCURVE",
"524 604 OFFCURVE",
"562 657 CURVE",
"489 707 LINE",
"458 665 OFFCURVE",
"432 621 OFFCURVE",
"407 573 CURVE",
"383 621 OFFCURVE",
"358 665 OFFCURVE",
"333 698 CURVE SMOOTH",
"324 710 OFFCURVE",
"313 721 OFFCURVE",
"296 721 CURVE SMOOTH",
"272 721 OFFCURVE",
"253 706 OFFCURVE",
"239 690 CURVE SMOOTH",
"153 594 OFFCURVE",
"73 461 OFFCURVE",
"20 345 CURVE",
"90 302 LINE",
"144 411 OFFCURVE",
"219 528 OFFCURVE",
"280 604 CURVE",
"379 429 OFFCURVE",
"462 228 OFFCURVE",
"527 17 CURVE"
);
}
);
width = 710;
}
);
unicode = 10919;
},
{
glyphname = two_ph;
lastChange = "2017-01-17 14:56:38 +0000";
layers = (
{
layerId = UUID0;
paths = (
{
closed = 1;
nodes = (
"243 210 OFFCURVE",
"292 500 OFFCURVE",
"304 708 CURVE",
"213 721 LINE",
"193 469 OFFCURVE",
"153 229 OFFCURVE",
"107 14 CURVE",
"197 -11 LINE"
);
},
{
closed = 1;
nodes = (
"443 210 OFFCURVE",
"492 500 OFFCURVE",
"504 708 CURVE",
"413 721 LINE",
"394 469 OFFCURVE",
"353 229 OFFCURVE",
"308 14 CURVE",
"397 -11 LINE"
);
}
);
width = 602;
}
);
unicode = 1091A;
},
{
glyphname = three_ph;
lastChange = "2017-01-17 14:56:38 +0000";
layers = (
{
layerId = UUID0;
paths = (
{
closed = 1;
nodes = (
"624 210 OFFCURVE",
"673 500 OFFCURVE",
"685 708 CURVE",
"594 721 LINE",
"574 469 OFFCURVE",
"534 229 OFFCURVE",
"488 14 CURVE",
"578 -11 LINE"
);
},
{
closed = 1;
nodes = (
"243 210 OFFCURVE",
"292 500 OFFCURVE",
"304 708 CURVE",
"213 721 LINE",
"193 469 OFFCURVE",
"153 229 OFFCURVE",
"107 14 CURVE",
"197 -11 LINE"
);
},
{
closed = 1;
nodes = (
"434 210 OFFCURVE",
"482 500 OFFCURVE",
"494 708 CURVE",
"403 721 LINE",
"384 469 OFFCURVE",
"343 229 OFFCURVE",
"298 14 CURVE",
"388 -11 LINE"
);
}
);
width = 782;
}
);
unicode = 1091B;
},
{
glyphname = u1091F;
lastChange = "2017-01-17 14:56:38 +0000";
layers = (
{
layerId = UUID0;
paths = (
{
closed = 1;
nodes = (
"162 306 OFFCURVE",
"199 342 OFFCURVE",
"199 385 CURVE SMOOTH",
"199 425 OFFCURVE",
"168 457 OFFCURVE",
"128 457 CURVE SMOOTH",
"83 457 OFFCURVE",
"49 417 OFFCURVE",
"49 377 CURVE SMOOTH",
"49 337 OFFCURVE",
"80 306 OFFCURVE",
"120 306 CURVE SMOOTH"
);
}
);
width = 248;
}
);
unicode = 1091F;
},
